# xmcd
# 
# Track frame offsets:
#     150
#     24624
#     47261
#     64373
#     82129
#     106206
#     125142
#     140610
#     158040
#     181027
#     197289
#     218166
#     228911
#     253130
#     278921
# 
# Disc length: 3771
# 
# Revision: 0
# Processed by: cddbd v1.5.2PL0 Copyright (c) Steve Scherf et al.
# Submitted via: fre:ac v1.0.31
# 
DISCID=d20eb90f
DTITLE=Muddy Waters - playlist: the very best of
DYEAR=2011
DGENRE=Blues
TTITLE0=Mannish Boy
TTITLE1=Who Do You Trust
TTITLE2=Mean Old Frisco Blues
TTITLE3=Walking Through The Park
TTITLE4=33 Years
TTITLE5=Baby Please Don't Go (Live)
TTITLE6=I'm Ready
TTITLE7=I'm A King Bee
TTITLE8=Screamin' And Cryin'
TTITLE9=The Blues Had A Baby And They Named It Rock And Roll #2
TTITLE10=Champagne And Reefer
TTITLE11=I Want To Be Loved
TTITLE12=She's Nineteen Years Old (Live)
TTITLE13=Got My Mojo Workin'
TTITLE14=Data track
EXTD=
EXTT0=Album: Hard Again\n
EXTT1=Album: I'm Ready\n
EXTT2=Album:King Bee\n
EXTT3=Album: Hard Again\n
EXTT4=I'm Ready\n
EXTT5=Album: Muddy "Mississippi" Waters (Live]\n
EXTT6=Album: I'm Ready\n
EXTT7=King Bee\n
EXTT8=I'm Ready\n
EXTT9=Album: Hard Again\n
EXTT10=Album: King Bee\n
EXTT11=Album: Hard Again\n
EXTT12=Album: Muddy "Mississippi" Waters (Live]\n
EXTT13=Album: Muddy "Mississippi" Waters (Live]\n
EXTT14=
PLAYORDER=
